<svg xmlns="http://www.w3.org/2000/svg" id="Layer_1" data-name="Layer 1" viewBox="0 0 189.82 219.19"><defs><style>.cls-1{fill:#fff}</style></defs><path d="M94.91 0l94.91 54.8v109.59l-94.91 54.8L0 164.39V54.8L94.91 0z"/><path d="M41.27 154l-4.14-5.94a1.89 1.89 0 0 1 .18-2.16l14.94-17.64h-7.38a1.7 1.7 0 0 1-1.8-1.8v-13a1.7 1.7 0 0 1 1.8-1.8h10.44a50.28 50.28 0 0 1-2-13.68 42.57 42.57 0 0 1 85.14 0 44.18 44.18 0 0 1-2 13.68h10.44a1.7 1.7 0 0 1 1.8 1.8v13a1.7 1.7 0 0 1-1.8 1.8h-9.18l14.8 17.74a1.89 1.89 0 0 1 0 2.16l-4.14 5.84a1.91 1.91 0 0 1-2.34.54l-8.64-4.5H52.25l-8.64 4.5a2 2 0 0 1-2.34-.54zm27.36-25.74H56.75L40.91 147l2.52 3.6 30.42-16zm-22-13v9.36h98.46v-9.36zm12.42-3.6h73.62a43.5 43.5 0 0 0 2.16-13.68 39 39 0 0 0-77.94 0c.04 4.77.4 9.63 2.2 13.77zm17.28 25.74l-17.1 9h24.52zm-3.06-9.18l15.12 18.18h13l15.12-18.18zm40.14 9.18l-7.38 9h24.48zm19.62-9.18h-11.84l-5.4 6.3 30.6 16 2.52-3.42z" class="cls-1"/></svg>