<svg xmlns="http://www.w3.org/2000/svg" data-name="Layer 1" viewBox="0 0 189.82 219.19"><path d="M59.27 146.59h24.48l-7.38-9-17.1 9zm9.36-18H56.75l-15.84 18.58 2.52 3.53 30.42-15.91-5.22-6.2zM46.91 115.6h98v9h-98zm85.8-4a41.6 41.6 0 0 0 2.16-13.6 39 39 0 0 0-77.94 0c0 4.68.36 9.62 2.16 13.62zm-59.4 16.99l15.12 18h12.96l15.12-18h-43.2z"/><path d="M94.91 0l-95 54.8v109.6l95 54.8 95-54.8V54.8zm57.6 148.11l-4.14 5.89c-.54.72-1.44.65-2.34.29l-8.64-4.75H52.25l-8.64 4.75a1.92 1.92 0 0 1-2.34-.42L37.13 148a1.62 1.62 0 0 1 .18-2l14.94-17.4h-7.38a2.07 2.07 0 0 1-2-2.08v-13a2 2 0 0 1 2-2h10.44a48 48 0 0 1-2-13.6 42.58 42.58 0 1 1 83.16 13.6h10.44a2 2 0 0 1 2 2v13a2.09 2.09 0 0 1-2 2.08h-9.18l14.76 17.5a1.67 1.67 0 0 1 .02 2.01z"/><path d="M121.19 128.59l-5.4 6.16 30.6 15.95 2.52-3.31-15.84-18.8h-11.88zm-15.12 18h24.48l-17.1-9-7.38 9z"/></svg>