<svg xmlns="http://www.w3.org/2000/svg" data-name="Layer 1" viewBox="0 0 189.82 219.19"><path d="M44.91 126.6h48v20h-48zm52 0h8v20h-8zm-4-17.01V73.05l-25.72 36.54h25.72zm-1.6-39.95a53.12 53.12 0 0 0-47.88 40h19.26zm5.6-.37v40.33h49.47a52.59 52.59 0 0 0-49.47-40.33z"/><path d="M94.91 0l-95 54.8v109.6l95 54.8 95-54.8V54.8zm77.57 126.6h-23.57v21.69c0 1.08-.9 1.31-2 1.31h-104c-1.08 0-2-.23-2-1.31V126.6H17.33a2 2 0 0 1 0-4h13.58v-11.39a1.5 1.5 0 0 1 1.72-1.62h7a57.17 57.17 0 0 1 55.1-43.83c.18-.18.36-.13.72 0a56.72 56.72 0 0 1 54.72 43.78h7a1.51 1.51 0 0 1 1.72 1.62v11.44h13.57a2 2 0 0 1 0 4z"/><path d="M34.91 112.6h120v10h-120zm73 14h37v20h-37z"/></svg>