<svg xmlns="http://www.w3.org/2000/svg" id="Layer_1" data-name="Layer 1" viewBox="0 0 189.82 219.19"><defs><style>.cls-1{fill:#fff}</style></defs><path d="M94.91 0l94.91 54.8v109.59l-94.91 54.8L0 164.39V54.8L94.91 0z"/><path d="M39.83 150.09a1.8 1.8 0 0 1 0-3.6h9v-11.34h-9a1.7 1.7 0 0 1-1.8-1.8V97.89a1.7 1.7 0 0 1 1.8-1.8h11.88c.9-25.56 20-39.6 43.2-39.6s42.3 14 43.2 39.6H150a1.7 1.7 0 0 1 1.8 1.8v35.46a1.7 1.7 0 0 1-1.8 1.8h-9v11.34h9a1.8 1.8 0 1 1 0 3.6zm1.8-50.4v31.86h106.56V99.69zm10.8 35.46v11.34H64v-11.34zm2.88-39.06h79.2c-.9-23.22-18.54-36-39.6-36s-38.7 12.78-39.6 36zm12.24 39.06v11.34h18v-11.34zm21.6 0v11.34h11.52v-11.34zm48.78-12.24H94a1.8 1.8 0 1 1 0-3.6h43.92a1.8 1.8 0 0 1 0 3.6zm-33.66 12.24v11.34h18v-11.34zm21.6 0v11.34h11.52v-11.34z" class="cls-1"/></svg>