<svg xmlns="http://www.w3.org/2000/svg" data-name="Layer 1" viewBox="0 0 189.82 219.19"><path d="M103.91 135.6h18v11h-18zm22 0h11v11h-11zm-37 0h12v11h-12zm-21 0h18v11h-18zm-26-4h106v-32h-106zm52.1-12h43.92a1.52 1.52 0 1 1 0 3H94a1.53 1.53 0 1 1 0-3z"/><path d="M94.91 0l-95 54.8v109.6l95 54.8 95-54.8V54.8zm57 133.35a2.2 2.2 0 0 1-1.91 2.25h-9.07v11H150a1.53 1.53 0 1 1 0 3H39.83a1.52 1.52 0 1 1 0-3h9.08v-11h-9.08a2.19 2.19 0 0 1-1.92-2.24V97.89a2.25 2.25 0 0 1 1.92-2.3h11.88c.9-25 20-39.6 43.2-39.6s42.3 14.6 43.2 39.6H150a2.25 2.25 0 0 1 1.93 2.3z"/><path d="M94.91 59.6c-21.06 0-38.7 13-39.6 36h79.2c-.9-23-18.51-36-39.6-36zm-42 76h11v11h-11z"/></svg>