<svg xmlns="http://www.w3.org/2000/svg"><symbol id="1" viewBox="0 0 189.82 219.19"><path d="M59.27 146.59h24.48l-7.38-9-17.1 9zm9.36-18H56.75l-15.84 18.58 2.52 3.53 30.42-15.91-5.22-6.2zM46.91 115.6h98v9h-98zm85.8-4a41.6 41.6 0 0 0 2.16-13.6 39 39 0 0 0-77.94 0c0 4.68.36 9.62 2.16 13.62zm-59.4 16.99l15.12 18h12.96l15.12-18h-43.2z"/><path d="M94.91 0l-95 54.8v109.6l95 54.8 95-54.8V54.8zm57.6 148.11l-4.14 5.89c-.54.72-1.44.65-2.34.29l-8.64-4.75H52.25l-8.64 4.75a1.92 1.92 0 0 1-2.34-.42L37.13 148a1.62 1.62 0 0 1 .18-2l14.94-17.4h-7.38a2.07 2.07 0 0 1-2-2.08v-13a2 2 0 0 1 2-2h10.44a48 48 0 0 1-2-13.6 42.58 42.58 0 1 1 83.16 13.6h10.44a2 2 0 0 1 2 2v13a2.09 2.09 0 0 1-2 2.08h-9.18l14.76 17.5a1.67 1.67 0 0 1 .02 2.01z"/><path d="M121.19 128.59l-5.4 6.16 30.6 15.95 2.52-3.31-15.84-18.8h-11.88zm-15.12 18h24.48l-17.1-9-7.38 9z"/></symbol><symbol id="2" viewBox="0 0 189.82 219.19"><path d="M44.91 126.6h48v20h-48zm52 0h8v20h-8zm-4-17.01V73.05l-25.72 36.54h25.72zm-1.6-39.95a53.12 53.12 0 0 0-47.88 40h19.26zm5.6-.37v40.33h49.47a52.59 52.59 0 0 0-49.47-40.33z"/><path d="M94.91 0l-95 54.8v109.6l95 54.8 95-54.8V54.8zm77.57 126.6h-23.57v21.69c0 1.08-.9 1.31-2 1.31h-104c-1.08 0-2-.23-2-1.31V126.6H17.33a2 2 0 0 1 0-4h13.58v-11.39a1.5 1.5 0 0 1 1.72-1.62h7a57.17 57.17 0 0 1 55.1-43.83c.18-.18.36-.13.72 0a56.72 56.72 0 0 1 54.72 43.78h7a1.51 1.51 0 0 1 1.72 1.62v11.44h13.57a2 2 0 0 1 0 4z"/><path d="M34.91 112.6h120v10h-120zm73 14h37v20h-37z"/></symbol><symbol id="3" viewBox="0 0 189.82 219.19"><path d="M103.91 135.6h18v11h-18zm22 0h11v11h-11zm-37 0h12v11h-12zm-21 0h18v11h-18zm-26-4h106v-32h-106zm52.1-12h43.92a1.52 1.52 0 1 1 0 3H94a1.53 1.53 0 1 1 0-3z"/><path d="M94.91 0l-95 54.8v109.6l95 54.8 95-54.8V54.8zm57 133.35a2.2 2.2 0 0 1-1.91 2.25h-9.07v11H150a1.53 1.53 0 1 1 0 3H39.83a1.52 1.52 0 1 1 0-3h9.08v-11h-9.08a2.19 2.19 0 0 1-1.92-2.24V97.89a2.25 2.25 0 0 1 1.92-2.3h11.88c.9-25 20-39.6 43.2-39.6s42.3 14.6 43.2 39.6H150a2.25 2.25 0 0 1 1.93 2.3z"/><path d="M94.91 59.6c-21.06 0-38.7 13-39.6 36h79.2c-.9-23-18.51-36-39.6-36zm-42 76h11v11h-11z"/></symbol></svg>