<svg xmlns="http://www.w3.org/2000/svg"><symbol id="1" viewBox="0 0 189.82 219.19"><defs><style>.cls-1{fill:#fff}</style></defs><path d="M94.91 0l94.91 54.8v109.59l-94.91 54.8L0 164.39V54.8L94.91 0z"/><path d="M41.27 154l-4.14-5.94a1.89 1.89 0 0 1 .18-2.16l14.94-17.64h-7.38a1.7 1.7 0 0 1-1.8-1.8v-13a1.7 1.7 0 0 1 1.8-1.8h10.44a50.28 50.28 0 0 1-2-13.68 42.57 42.57 0 0 1 85.14 0 44.18 44.18 0 0 1-2 13.68h10.44a1.7 1.7 0 0 1 1.8 1.8v13a1.7 1.7 0 0 1-1.8 1.8h-9.18l14.8 17.74a1.89 1.89 0 0 1 0 2.16l-4.14 5.84a1.91 1.91 0 0 1-2.34.54l-8.64-4.5H52.25l-8.64 4.5a2 2 0 0 1-2.34-.54zm27.36-25.74H56.75L40.91 147l2.52 3.6 30.42-16zm-22-13v9.36h98.46v-9.36zm12.42-3.6h73.62a43.5 43.5 0 0 0 2.16-13.68 39 39 0 0 0-77.94 0c.04 4.77.4 9.63 2.2 13.77zm17.28 25.74l-17.1 9h24.52zm-3.06-9.18l15.12 18.18h13l15.12-18.18zm40.14 9.18l-7.38 9h24.48zm19.62-9.18h-11.84l-5.4 6.3 30.6 16 2.52-3.42z" class="cls-1"/></symbol><symbol id="2" viewBox="0 0 189.82 219.19"><defs><style>.cls-1{fill:#fff}</style></defs><path d="M94.91 0l94.91 54.8v109.59l-94.91 54.8L0 164.39V54.8L94.91 0z"/><path d="M42.89 150.09a1.7 1.7 0 0 1-1.8-1.8v-21.78H17.33a1.8 1.8 0 0 1 0-3.6h13.5v-11.7a1.7 1.7 0 0 1 1.8-1.8h7a57.07 57.07 0 0 1 55.1-43.74c.18-.18.36-.18.72 0a56.86 56.86 0 0 1 54.72 43.74h7a1.7 1.7 0 0 1 1.8 1.8v11.7h13.5a1.8 1.8 0 1 1 0 3.6h-23.74v21.78a1.7 1.7 0 0 1-1.8 1.8zM34.43 113v9.9h121V113zm56.88-43.55c-23 1.44-42.3 18.18-47.88 40h19.26zm-46.62 57.06v20h48.42v-20zm48.42-53.46l-25.92 36.36h25.92zm3.6-3.78v40.14h49.68a53.5 53.5 0 0 0-49.68-40.14zm0 57.24v20h8.1v-20zm11.7 0v20h36.72v-20z" class="cls-1"/></symbol><symbol id="3" viewBox="0 0 189.82 219.19"><defs><style>.cls-1{fill:#fff}</style></defs><path d="M94.91 0l94.91 54.8v109.59l-94.91 54.8L0 164.39V54.8L94.91 0z"/><path d="M39.83 150.09a1.8 1.8 0 0 1 0-3.6h9v-11.34h-9a1.7 1.7 0 0 1-1.8-1.8V97.89a1.7 1.7 0 0 1 1.8-1.8h11.88c.9-25.56 20-39.6 43.2-39.6s42.3 14 43.2 39.6H150a1.7 1.7 0 0 1 1.8 1.8v35.46a1.7 1.7 0 0 1-1.8 1.8h-9v11.34h9a1.8 1.8 0 1 1 0 3.6zm1.8-50.4v31.86h106.56V99.69zm10.8 35.46v11.34H64v-11.34zm2.88-39.06h79.2c-.9-23.22-18.54-36-39.6-36s-38.7 12.78-39.6 36zm12.24 39.06v11.34h18v-11.34zm21.6 0v11.34h11.52v-11.34zm48.78-12.24H94a1.8 1.8 0 1 1 0-3.6h43.92a1.8 1.8 0 0 1 0 3.6zm-33.66 12.24v11.34h18v-11.34zm21.6 0v11.34h11.52v-11.34z" class="cls-1"/></symbol></svg>